<?xml version="1.0" encoding="utf-8"?>
<!-- Generator: Adobe Illustrator 15.1.0, SVG Export Plug-In . SVG Version: 6.00 Build 0)  -->
<!DOCTYPE svg PUBLIC "-//W3C//DTD SVG 1.0//EN" "http://www.w3.org/TR/2001/REC-SVG-20010904/DTD/svg10.dtd">
<svg version="1.0" id="Layer_1" xmlns="http://www.w3.org/2000/svg" xmlns:xlink="http://www.w3.org/1999/xlink" x="0px" y="0px"
	 width="40px" height="40px" viewBox="0 0 40 40" enable-background="new 0 0 40 40" xml:space="preserve">
<path d="M13.744,19.999L29.852,2.997c0.328-0.325,0.508-0.759,0.508-1.222c0-0.952-0.775-1.727-1.727-1.727
	c-0.46,0-0.894,0.18-1.236,0.521L10.145,18.78c-0.325,0.327-0.504,0.76-0.504,1.219c0,0.462,0.18,0.898,0.491,1.207l17.279,18.24
	c0.326,0.326,0.76,0.506,1.222,0.506c0.951,0,1.727-0.775,1.727-1.728c0-0.462-0.18-0.894-0.492-1.205L13.744,19.999z"/>
</svg>
