<?xml version="1.0" encoding="utf-8"?>
<!-- Generator: Adobe Illustrator 15.1.0, SVG Export Plug-In . SVG Version: 6.00 Build 0)  -->
<!DOCTYPE svg PUBLIC "-//W3C//DTD SVG 1.0//EN" "http://www.w3.org/TR/2001/REC-SVG-20010904/DTD/svg10.dtd">
<svg version="1.0" id="Layer_1" xmlns="http://www.w3.org/2000/svg" xmlns:xlink="http://www.w3.org/1999/xlink" x="0px" y="0px"
	 width="40px" height="40px" viewBox="0 0 40 40" enable-background="new 0 0 40 40" xml:space="preserve">
<path d="M19.999,26.256L2.997,10.148C2.672,9.82,2.238,9.641,1.775,9.641c-0.952,0-1.727,0.775-1.727,1.727
	c0,0.46,0.18,0.894,0.521,1.236L18.78,29.855c0.327,0.325,0.76,0.504,1.219,0.504c0.462,0,0.898-0.18,1.207-0.491l18.24-17.279
	c0.326-0.326,0.506-0.76,0.506-1.222c0-0.951-0.775-1.727-1.728-1.727c-0.462,0-0.894,0.18-1.205,0.492L19.999,26.256z"/>
</svg>
