<?xml version="1.0" encoding="utf-8"?>
<!-- Generator: Adobe Illustrator 15.1.0, SVG Export Plug-In . SVG Version: 6.00 Build 0)  -->
<!DOCTYPE svg PUBLIC "-//W3C//DTD SVG 1.0//EN" "http://www.w3.org/TR/2001/REC-SVG-20010904/DTD/svg10.dtd">
<svg version="1.0" id="Layer_1" xmlns="http://www.w3.org/2000/svg" xmlns:xlink="http://www.w3.org/1999/xlink" x="0px" y="0px"
	 width="40px" height="40px" viewBox="0 0 40 40" enable-background="new 0 0 40 40" xml:space="preserve">
<path d="M39.317,14.824c-0.161-0.602-0.817-0.977-1.416-0.817l-6.482,1.736c-0.295,0.078-0.552,0.275-0.704,0.54
	c-0.151,0.262-0.194,0.582-0.115,0.878c0.504,1.867,0.509,3.831,0.014,5.682c-0.496,1.85-1.483,3.549-2.853,4.914
	c-2.051,2.042-4.908,3.213-7.843,3.213c-0.94,0-1.87-0.121-2.762-0.36c-3.762-1.008-6.734-3.986-7.756-7.773
	c-0.504-1.865-0.509-3.831-0.013-5.681c0.497-1.85,1.483-3.549,2.852-4.913c2.051-2.043,4.91-3.215,7.845-3.215
	c0.939,0,1.869,0.122,2.764,0.361c0.29,0.074,0.609,0.033,0.874-0.116c0.268-0.155,0.46-0.404,0.54-0.703l1.732-6.47
	c0.08-0.298,0.04-0.61-0.115-0.877c-0.154-0.267-0.403-0.459-0.702-0.54C23.479,0.23,21.736,0,19.992,0
	C14.747,0,9.597,2.134,5.858,5.861c-2.48,2.478-4.271,5.577-5.178,8.963c-0.908,3.389-0.908,6.968,0.002,10.353
	c1.852,6.88,7.27,12.297,14.141,14.138C16.521,39.77,18.264,40,20.007,40c5.249,0,10.4-2.137,14.133-5.861
	c2.479-2.474,4.271-5.574,5.18-8.963C40.228,21.787,40.228,18.208,39.317,14.824z M7.516,24.54c1.342,3.67,4.285,6.62,7.937,7.956
	l-1.137,4.249c-5.184-1.764-9.292-5.871-11.062-11.063L7.516,24.54z M6.914,22.308L2.653,23.45
	c-0.527-2.647-0.438-5.417,0.262-8.027c0.699-2.611,2.007-5.054,3.788-7.083l3.119,3.119c-1.25,1.484-2.171,3.242-2.669,5.099
	C6.655,18.417,6.573,20.4,6.914,22.308z M8.34,6.707c3.195-2.787,7.46-4.381,11.744-4.381c1.135,0,2.267,0.111,3.367,0.33
	l-1.139,4.249c-0.733-0.128-1.485-0.194-2.238-0.194c-3.159,0-6.209,1.104-8.615,3.115L8.34,6.707z M30.179,28.542
	c1.249-1.483,2.17-3.243,2.669-5.101c0.497-1.856,0.579-3.84,0.238-5.75l4.26-1.14c0.528,2.646,0.439,5.415-0.26,8.026
	c-0.7,2.61-2.008,5.054-3.789,7.081L30.179,28.542z M31.66,33.292c-3.195,2.787-7.459,4.382-11.741,4.382
	c-1.137,0-2.27-0.111-3.371-0.331l1.139-4.248c0.733,0.129,1.484,0.193,2.237,0.193c3.16,0,6.211-1.104,8.616-3.114L31.66,33.292z"
	/>
</svg>
