<?xml version="1.0" encoding="utf-8"?>
<!-- Generator: Adobe Illustrator 15.1.0, SVG Export Plug-In . SVG Version: 6.00 Build 0)  -->
<!DOCTYPE svg PUBLIC "-//W3C//DTD SVG 1.0//EN" "http://www.w3.org/TR/2001/REC-SVG-20010904/DTD/svg10.dtd">
<svg version="1.0" id="Layer_1" xmlns="http://www.w3.org/2000/svg" xmlns:xlink="http://www.w3.org/1999/xlink" x="0px" y="0px"
	 width="40px" height="40px" viewBox="0 0 40 40" enable-background="new 0 0 40 40" xml:space="preserve">
<g>
	<path d="M20,16.37c-3.007,0-5.444,2.438-5.444,5.444c0,3.007,2.438,5.444,5.444,5.444c3.006,0,5.444-2.438,5.444-5.444
		C25.444,18.809,23.006,16.37,20,16.37z M20,25.444c-2.004,0-3.63-1.625-3.63-3.63c0-2.004,1.626-3.629,3.63-3.629
		c2.005,0,3.63,1.625,3.63,3.629C23.63,23.819,22.005,25.444,20,25.444z"/>
	<path d="M36.334,7.296h-3.63c-2.723,0-2.723-3.629-6.353-3.629H20h-6.352c-3.63,0-3.63,3.629-6.352,3.629h-3.63
		c-2.005,0-3.63,1.626-3.63,3.63v21.778c0,2.004,1.625,3.629,3.63,3.629h32.667c2.004,0,3.629-1.625,3.629-3.629V10.926
		C39.963,8.922,38.338,7.296,36.334,7.296z M38.148,25.444h-7.893c-0.225,0.635-0.503,1.241-0.835,1.814h8.728v5.445
		c0,1.001-0.813,1.814-1.814,1.814H3.667c-1.002,0-1.815-0.813-1.815-1.814v-5.445h8.729c-0.333-0.573-0.611-1.18-0.836-1.814H1.852
		V10.926c0-1.001,0.813-1.814,1.815-1.814h3.63c3.629,0,3.629-3.63,6.352-3.63H20h6.352c2.723,0,2.723,3.63,6.353,3.63h3.63
		c1.001,0,1.814,0.813,1.814,1.814V25.444z"/>
	<path d="M33.611,10.926c-1.503,0-2.723,1.22-2.723,2.723c0,1.504,1.22,2.722,2.723,2.722s2.723-1.218,2.723-2.722
		C36.334,12.146,35.114,10.926,33.611,10.926z M33.611,14.556c-0.502,0-0.907-0.405-0.907-0.907c0-0.501,0.405-0.908,0.907-0.908
		s0.907,0.407,0.907,0.908C34.519,14.15,34.113,14.556,33.611,14.556z"/>
	<path d="M20,12.74c-5.012,0-9.074,4.063-9.074,9.074c0,5.013,4.063,9.074,9.074,9.074s9.074-4.062,9.074-9.074
		C29.074,16.804,25.012,12.74,20,12.74z M20,29.074c-4.009,0-7.259-3.25-7.259-7.26c0-4.009,3.25-7.259,7.259-7.259
		s7.26,3.25,7.26,7.259C27.26,25.824,24.009,29.074,20,29.074z"/>
</g>
</svg>
