<?xml version="1.0" encoding="utf-8"?>
<!-- Generator: Adobe Illustrator 15.1.0, SVG Export Plug-In . SVG Version: 6.00 Build 0)  -->
<!DOCTYPE svg PUBLIC "-//W3C//DTD SVG 1.0//EN" "http://www.w3.org/TR/2001/REC-SVG-20010904/DTD/svg10.dtd">
<svg version="1.0" id="Layer_1" xmlns="http://www.w3.org/2000/svg" xmlns:xlink="http://www.w3.org/1999/xlink" x="0px" y="0px"
	 width="40px" height="40px" viewBox="0 0 40 40" enable-background="new 0 0 40 40" xml:space="preserve">
<g>
	<path fill="#1D1D1B" d="M26.383,10.278H1.477c-0.398,0-0.721,0.323-0.721,0.722v17.999c0,0.397,0.323,0.723,0.721,0.723h24.906
		c0.399,0,0.723-0.325,0.723-0.723V11C27.105,10.602,26.782,10.278,26.383,10.278z M25.661,28.275H2.2V11.722h23.461V28.275z"/>
	<path fill="#1D1D1B" d="M38.521,10.278h-8.162c-0.397,0-0.723,0.323-0.723,0.722v17.999c0,0.397,0.325,0.723,0.723,0.723h8.162
		c0.399,0,0.723-0.325,0.723-0.723V11C39.244,10.602,38.921,10.278,38.521,10.278z M37.8,28.275h-6.718V11.722H37.8V28.275z"/>
</g>
</svg>
