<?xml version="1.0" encoding="utf-8"?>
<!-- Generator: Adobe Illustrator 15.1.0, SVG Export Plug-In . SVG Version: 6.00 Build 0)  -->
<!DOCTYPE svg PUBLIC "-//W3C//DTD SVG 1.0//EN" "http://www.w3.org/TR/2001/REC-SVG-20010904/DTD/svg10.dtd">
<svg version="1.0" id="Layer_1" xmlns="http://www.w3.org/2000/svg" xmlns:xlink="http://www.w3.org/1999/xlink" x="0px" y="0px"
	 width="40px" height="40px" viewBox="0 0 40 40" enable-background="new 0 0 40 40" xml:space="preserve">
<path fill="#1D1D1B" d="M38.912,18.912H26.519c-0.569-2.659-2.729-4.728-5.431-5.174V1.088C21.088,0.487,20.6,0,20,0
	c-0.601,0-1.088,0.487-1.088,1.088v12.65c-2.702,0.446-4.861,2.515-5.431,5.174H1.088C0.487,18.912,0,19.399,0,20
	c0,0.6,0.487,1.088,1.088,1.088h12.294c0.345,2.95,2.623,5.313,5.53,5.793v12.031C18.912,39.513,19.399,40,20,40
	c0.6,0,1.088-0.487,1.088-1.088V26.881c2.907-0.48,5.186-2.843,5.53-5.793h12.294C39.513,21.088,40,20.6,40,20
	C40,19.399,39.513,18.912,38.912,18.912z M20,24.802c-2.478,0-4.494-2.015-4.494-4.492c0-2.478,2.016-4.494,4.494-4.494
	s4.492,2.016,4.492,4.494C24.492,22.787,22.478,24.802,20,24.802z"/>
</svg>
