<?xml version="1.0" encoding="utf-8"?>
<!-- Generator: Adobe Illustrator 15.1.0, SVG Export Plug-In . SVG Version: 6.00 Build 0)  -->
<!DOCTYPE svg PUBLIC "-//W3C//DTD SVG 1.0//EN" "http://www.w3.org/TR/2001/REC-SVG-20010904/DTD/svg10.dtd">
<svg version="1.0" id="Layer_1" xmlns="http://www.w3.org/2000/svg" xmlns:xlink="http://www.w3.org/1999/xlink" x="0px" y="0px"
	 width="40px" height="40px" viewBox="0 0 40 40" enable-background="new 0 0 40 40" xml:space="preserve">
<path d="M39.928,28.785l-5.329-13.191c0.074-0.345-0.038-0.701-0.3-0.938l-0.126-0.115l-0.063-0.158
	c-0.098-0.244-0.293-0.442-0.537-0.545c-0.073-0.03-0.152-0.051-0.239-0.063l-9.501-8.657c-0.083-0.345-0.34-0.618-0.681-0.719
	l-0.16-0.047l-0.124-0.113c-0.186-0.167-0.418-0.26-0.653-0.26c-0.024,0-0.048,0.001-0.067,0.002
	C22.067,3.986,21.988,4.002,21.9,4.03L8.378,0.04C8.125-0.034,7.848-0.003,7.62,0.122c-0.23,0.126-0.405,0.344-0.477,0.596
	L0.351,24.242c-1.295,4.488,1.102,9.188,5.459,10.731C7.259,38.075,10.262,40,13.662,40c1.126,0,2.232-0.221,3.287-0.655
	l22.437-9.269C39.889,29.87,40.132,29.29,39.928,28.785z M11.499,34.995c0.193-0.066,0.382-0.141,0.569-0.222
	c0.049-0.021,0.097-0.044,0.145-0.066l0.049-0.023c0.132-0.061,0.263-0.122,0.393-0.189c0.074-0.038,0.146-0.079,0.215-0.119
	c0.118-0.065,0.236-0.135,0.353-0.207l0.21-0.135c0.115-0.075,0.227-0.153,0.355-0.248c0.059-0.043,0.118-0.087,0.176-0.131
	c0.118-0.092,0.233-0.188,0.347-0.285l0.067-0.057c0.029-0.023,0.057-0.047,0.085-0.072c0.325-0.291,0.628-0.607,0.902-0.94
	c0.029-0.034,0.056-0.069,0.083-0.105l0.038-0.05c0.095-0.119,0.188-0.24,0.277-0.366l0.132-0.194
	c0.079-0.119,0.156-0.239,0.229-0.362c0.042-0.07,0.082-0.14,0.123-0.211c0.07-0.125,0.137-0.253,0.202-0.383l0.105-0.212
	c0.066-0.144,0.127-0.289,0.186-0.436l0.027-0.067c0.016-0.038,0.032-0.076,0.048-0.116c0.086-0.232,0.157-0.442,0.215-0.644
	l6.294-21.805l8.907,8.115l-15.574,17.47c-0.346,0.39-0.746,0.743-1.189,1.051c-1.28,0.887-2.812,1.296-4.356,1.162l-0.073-0.006
	c0.142-0.039,0.282-0.083,0.421-0.132L11.499,34.995z M10.52,37.08l0.095,0.011c0.139,0.019,0.279,0.032,0.421,0.043l0.138,0.01
	c1.837,0.114,3.683-0.378,5.24-1.396c0.637-0.417,1.22-0.918,1.732-1.492L33.18,17.388l4.536,11.228L16.19,37.508
	c-0.811,0.335-1.661,0.504-2.528,0.504c-1.251,0-2.445-0.338-3.49-0.985C10.286,37.047,10.402,37.065,10.52,37.08z M21.642,6.026
	l-6.518,22.575c-0.831,2.876-3.474,4.885-6.429,4.885c-0.628,0-1.26-0.091-1.877-0.272c-3.551-1.049-5.595-4.826-4.557-8.42
	L8.774,2.229L21.642,6.026z"/>
<path d="M7.98,29.16c0.176,0.053,0.357,0.079,0.539,0.079c0.846,0,1.602-0.573,1.839-1.395c0.295-1.024-0.289-2.102-1.302-2.4
	c-0.175-0.053-0.357-0.079-0.538-0.079c-0.846,0-1.603,0.574-1.839,1.396C6.381,27.785,6.966,28.862,7.98,29.16z"/>
</svg>
