<?xml version="1.0" encoding="UTF-8" standalone="no"?>
<!-- Generator: Adobe Illustrator 15.1.0, SVG Export Plug-In . SVG Version: 6.00 Build 0)  -->

<svg
   xmlns:dc="http://purl.org/dc/elements/1.1/"
   xmlns:cc="http://creativecommons.org/ns#"
   xmlns:rdf="http://www.w3.org/1999/02/22-rdf-syntax-ns#"
   xmlns:svg="http://www.w3.org/2000/svg"
   xmlns="http://www.w3.org/2000/svg"
   xmlns:sodipodi="http://sodipodi.sourceforge.net/DTD/sodipodi-0.dtd"
   xmlns:inkscape="http://www.inkscape.org/namespaces/inkscape"
   version="1.0"
   id="Layer_1"
   x="0px"
   y="0px"
   width="40px"
   height="40px"
   viewBox="0 0 40 40"
   enable-background="new 0 0 40 40"
   xml:space="preserve"
   inkscape:version="0.91 r13725"
   sodipodi:docname="range_K.svg"><metadata
     id="metadata13"><rdf:RDF><cc:Work
         rdf:about=""><dc:format>image/svg+xml</dc:format><dc:type
           rdf:resource="http://purl.org/dc/dcmitype/StillImage" /></cc:Work></rdf:RDF></metadata><defs
     id="defs11" /><sodipodi:namedview
     pagecolor="#ffffff"
     bordercolor="#666666"
     borderopacity="1"
     objecttolerance="10"
     gridtolerance="10"
     guidetolerance="10"
     inkscape:pageopacity="0"
     inkscape:pageshadow="2"
     inkscape:window-width="1920"
     inkscape:window-height="1027"
     id="namedview9"
     showgrid="false"
     inkscape:zoom="2.95"
     inkscape:cx="-71.020923"
     inkscape:cy="-50.120952"
     inkscape:window-x="0"
     inkscape:window-y="0"
     inkscape:window-maximized="1"
     inkscape:current-layer="Layer_1" /><path
     fill="#1D1D1B"
     d="M18.65,0.527H5.626c-0.745,0-1.35,0.604-1.35,1.352c0,0.745,0.604,1.35,1.35,1.35h11.674v5.793H9.874  c-0.745,0-1.35,0.604-1.35,1.352c0,0.745,0.604,1.35,1.35,1.35h7.427v6.645H9.874c-0.745,0-1.35,0.604-1.35,1.351  c0,0.745,0.604,1.351,1.35,1.351h7.427v6.644H9.874c-0.745,0-1.35,0.604-1.35,1.351s0.604,1.35,1.35,1.35h7.427v6.359H5.626  c-0.745,0-1.35,0.604-1.35,1.351s0.604,1.351,1.35,1.351H18.65c0.744,0,1.35-0.604,1.35-1.351V1.879  C20,1.133,19.396,0.527,18.65,0.527z"
     id="path3" /><text
     xml:space="preserve"
     style="font-style:normal;font-weight:normal;font-size:40px;line-height:125%;font-family:sans-serif;letter-spacing:0px;word-spacing:0px;fill:#000000;fill-opacity:1;stroke:none;stroke-width:1px;stroke-linecap:butt;stroke-linejoin:miter;stroke-opacity:1"
     x="23.821646"
     y="24.820593"
     id="text4141"
     sodipodi:linespacing="125%"><tspan
       sodipodi:role="line"
       id="tspan4143"
       x="23.821646"
       y="24.820593"
       style="font-style:normal;font-variant:normal;font-weight:500;font-stretch:normal;font-size:15px;font-family:Ubuntu;-inkscape-font-specification:'Ubuntu Medium'">K</tspan></text>
</svg>