<?xml version="1.0" encoding="utf-8"?>
<!-- Generator: Adobe Illustrator 15.1.0, SVG Export Plug-In . SVG Version: 6.00 Build 0)  -->
<!DOCTYPE svg PUBLIC "-//W3C//DTD SVG 1.0//EN" "http://www.w3.org/TR/2001/REC-SVG-20010904/DTD/svg10.dtd">
<svg version="1.0" id="Layer_1" xmlns="http://www.w3.org/2000/svg" xmlns:xlink="http://www.w3.org/1999/xlink" x="0px" y="0px"
	 width="40px" height="40px" viewBox="0 0 40 40" enable-background="new 0 0 40 40" xml:space="preserve">
<path fill="#1D1D1B" d="M26.512,0.53H13.488c-0.745,0-1.35,0.604-1.35,1.351c0,0.745,0.604,1.35,1.35,1.35h11.674v5.793h-7.427
	c-0.745,0-1.35,0.604-1.35,1.351c0,0.745,0.604,1.35,1.35,1.35h7.427v6.644h-7.427c-0.745,0-1.35,0.604-1.35,1.351
	c0,0.745,0.604,1.35,1.35,1.35h7.427v6.644h-7.427c-0.745,0-1.35,0.604-1.35,1.35s0.604,1.35,1.35,1.35h7.427v6.36H13.488
	c-0.745,0-1.35,0.604-1.35,1.35s0.604,1.35,1.35,1.35h13.023c0.745,0,1.35-0.604,1.35-1.35V1.881
	C27.861,1.135,27.257,0.53,26.512,0.53z"/>
</svg>
