<?xml version="1.0" encoding="utf-8"?>
<!-- Generator: Adobe Illustrator 15.1.0, SVG Export Plug-In . SVG Version: 6.00 Build 0)  -->
<!DOCTYPE svg PUBLIC "-//W3C//DTD SVG 1.0//EN" "http://www.w3.org/TR/2001/REC-SVG-20010904/DTD/svg10.dtd">
<svg version="1.0" id="Layer_1" xmlns="http://www.w3.org/2000/svg" xmlns:xlink="http://www.w3.org/1999/xlink" x="0px" y="0px"
	 width="40px" height="40px" viewBox="0 0 40 40" enable-background="new 0 0 40 40" xml:space="preserve">
<path fill="#1D1D1B" d="M18.65,0.527H5.626c-0.745,0-1.35,0.604-1.35,1.352c0,0.745,0.604,1.35,1.35,1.35h11.674v5.793H9.874
	c-0.745,0-1.35,0.604-1.35,1.352c0,0.745,0.604,1.35,1.35,1.35h7.427v6.645H9.874c-0.745,0-1.35,0.604-1.35,1.351
	c0,0.745,0.604,1.351,1.35,1.351h7.427v6.644H9.874c-0.745,0-1.35,0.604-1.35,1.351s0.604,1.35,1.35,1.35h7.427v6.359H5.626
	c-0.745,0-1.35,0.604-1.35,1.351s0.604,1.351,1.35,1.351H18.65c0.744,0,1.35-0.604,1.35-1.351V1.879
	C20,1.133,19.396,0.527,18.65,0.527z"/>
<path d="M26.935,14.417c0.32,0,0.628,0.052,0.923,0.157s0.552,0.26,0.772,0.465c0.22,0.205,0.395,0.45,0.524,0.735
	s0.195,0.607,0.195,0.967c0,0.36-0.065,0.683-0.195,0.968c-0.13,0.285-0.305,0.53-0.524,0.735c-0.221,0.205-0.478,0.36-0.772,0.465
	s-0.603,0.158-0.923,0.158s-0.628-0.053-0.922-0.158c-0.296-0.105-0.553-0.26-0.773-0.465c-0.22-0.205-0.395-0.45-0.524-0.735
	c-0.13-0.285-0.195-0.607-0.195-0.968c0-0.36,0.065-0.682,0.195-0.967s0.305-0.53,0.524-0.735c0.221-0.205,0.478-0.36,0.773-0.465
	C26.307,14.469,26.614,14.417,26.935,14.417z M26.935,17.597c0.21,0,0.4-0.077,0.57-0.232c0.17-0.155,0.255-0.362,0.255-0.623
	c0-0.26-0.085-0.467-0.255-0.623c-0.17-0.155-0.36-0.232-0.57-0.232s-0.4,0.078-0.57,0.232c-0.17,0.155-0.255,0.363-0.255,0.623
	c0,0.26,0.085,0.468,0.255,0.623C26.534,17.52,26.725,17.597,26.935,17.597z"/>
<path d="M35.23,26.342c-1.69,0-2.978-0.47-3.863-1.41c-0.885-0.939-1.327-2.274-1.327-4.005c0-0.859,0.135-1.627,0.405-2.302
	c0.27-0.675,0.64-1.245,1.109-1.71c0.471-0.465,1.03-0.818,1.681-1.058c0.649-0.24,1.354-0.36,2.114-0.36
	c0.44,0,0.841,0.032,1.2,0.097c0.36,0.065,0.675,0.14,0.945,0.225c0.27,0.085,0.495,0.172,0.675,0.263
	c0.18,0.09,0.31,0.16,0.39,0.21l-0.675,1.89c-0.32-0.17-0.692-0.315-1.117-0.435c-0.425-0.12-0.907-0.18-1.447-0.18
	c-0.36,0-0.713,0.06-1.058,0.18c-0.345,0.12-0.65,0.313-0.915,0.577c-0.266,0.265-0.478,0.607-0.638,1.028
	c-0.16,0.42-0.24,0.93-0.24,1.53c0,0.48,0.053,0.928,0.158,1.343c0.104,0.415,0.274,0.772,0.51,1.072
	c0.234,0.3,0.542,0.538,0.922,0.713c0.381,0.175,0.841,0.262,1.381,0.262c0.34,0,0.645-0.02,0.915-0.06
	c0.27-0.04,0.51-0.088,0.72-0.143s0.395-0.117,0.555-0.188s0.305-0.135,0.436-0.195l0.645,1.875c-0.33,0.2-0.795,0.381-1.395,0.54
	C36.715,26.262,36.02,26.342,35.23,26.342z"/>
</svg>
