<?xml version="1.0" encoding="utf-8"?>
<!-- Generator: Adobe Illustrator 15.1.0, SVG Export Plug-In . SVG Version: 6.00 Build 0)  -->
<!DOCTYPE svg PUBLIC "-//W3C//DTD SVG 1.0//EN" "http://www.w3.org/TR/2001/REC-SVG-20010904/DTD/svg10.dtd">
<svg version="1.0" id="Layer_1" xmlns="http://www.w3.org/2000/svg" xmlns:xlink="http://www.w3.org/1999/xlink" x="0px" y="0px"
	 width="40px" height="40px" viewBox="0 0 40 40" enable-background="new 0 0 40 40" xml:space="preserve">
<path d="M39.313,14.753C37.616,8.438,32.656,3.184,26.369,1.039C24.367,0.355,22.222,0.006,19.99,0
	C13.25,0.018,6.989,3.398,3.244,9.044c-3.716,5.601-4.282,12.976-1.477,19.244c2.675,5.981,8.38,10.367,14.889,11.444
	C17.729,39.911,18.828,40,19.92,40c0,0,0,0,0.001,0c5.673,0,11.097-2.381,14.877-6.528l0.036-0.04
	c0.436-0.18,0.759-0.562,0.844-0.996C39.603,27.478,40.961,20.879,39.313,14.753z M37.334,19.621
	c0.071,3.03-0.663,6.044-2.126,8.715c-0.241,0.442-0.507,0.878-0.789,1.3l-8.451-14.627h10.637
	C37.052,16.502,37.297,18.052,37.334,19.621z M32.624,31.876c-3.102,3.271-7.403,5.252-11.859,5.449
	c-0.636,0.027-1.268,0.021-1.903-0.021l8.45-14.625L32.624,31.876z M21.335,27.679l-5.317,9.204c-1.41-0.33-2.768-0.834-4.042-1.497
	c-2.598-1.354-4.83-3.363-6.454-5.812c-0.401-0.604-0.766-1.239-1.09-1.896H21.335z M10.117,5.751
	c2.479-1.716,5.362-2.757,8.335-3.014c0.482-0.042,0.986-0.063,1.54-0.064c0.374,0.001,0.75,0.015,1.127,0.039l-8.448,14.623
	L7.354,8.132C8.191,7.244,9.141,6.426,10.117,5.751z M22.88,25.006h-5.776l-2.888-4.998l2.888-4.999h5.776l2.888,4.999L22.88,25.006
	z M18.647,12.336l5.315-9.2c1.642,0.384,3.215,1.004,4.68,1.844c2.523,1.446,4.669,3.546,6.204,6.072
	c0.252,0.415,0.488,0.845,0.706,1.284H18.647z M14.016,25.006H3.379C3,23.749,2.766,22.459,2.681,21.164
	c-0.201-3.068,0.407-6.126,1.755-8.842c0.331-0.666,0.709-1.316,1.128-1.943L14.016,25.006z"/>
</svg>
