<?xml version="1.0" encoding="utf-8"?>
<!-- Generator: Adobe Illustrator 15.1.0, SVG Export Plug-In . SVG Version: 6.00 Build 0)  -->
<!DOCTYPE svg PUBLIC "-//W3C//DTD SVG 1.0//EN" "http://www.w3.org/TR/2001/REC-SVG-20010904/DTD/svg10.dtd">
<svg version="1.0" id="Layer_1" xmlns="http://www.w3.org/2000/svg" xmlns:xlink="http://www.w3.org/1999/xlink" x="0px" y="0px"
	 width="40px" height="40px" viewBox="0 0 40 40" enable-background="new 0 0 40 40" xml:space="preserve">
<path d="M20,0C8.972,0,0,8.972,0,20s8.972,20,20,20s20-8.972,20-20S31.028,0,20,0z M20,37.086c-9.421,0-17.086-7.664-17.086-17.086
	c0-9.421,7.665-17.086,17.086-17.086c9.422,0,17.086,7.665,17.086,17.086C37.086,29.422,29.422,37.086,20,37.086z"/>
<path d="M17.66,10.236c-0.255-0.252-0.592-0.391-0.949-0.391c-0.742,0-1.347,0.604-1.347,1.347c0,0.361,0.142,0.701,0.378,0.935
	L23.2,20l-7.441,7.855c-0.254,0.255-0.395,0.593-0.395,0.952c0,0.742,0.604,1.347,1.347,1.347c0.359,0,0.698-0.14,0.969-0.412
	l8.324-8.787c0.257-0.254,0.398-0.593,0.398-0.955c0-0.36-0.141-0.699-0.379-0.935L17.66,10.236z"/>
</svg>
