<?xml version="1.0" encoding="utf-8"?>
<!-- Generator: Adobe Illustrator 15.1.0, SVG Export Plug-In . SVG Version: 6.00 Build 0)  -->
<!DOCTYPE svg PUBLIC "-//W3C//DTD SVG 1.0//EN" "http://www.w3.org/TR/2001/REC-SVG-20010904/DTD/svg10.dtd">
<svg version="1.0" id="Layer_1" xmlns="http://www.w3.org/2000/svg" xmlns:xlink="http://www.w3.org/1999/xlink" x="0px" y="0px"
	 width="40px" height="40px" viewBox="0 0 40 40" enable-background="new 0 0 40 40" xml:space="preserve">
<path d="M20,1.148c-7.823,0-14.188,6.364-14.188,14.187c0,11.235,13.326,23.857,13.894,24.39L20,40l0.294-0.275
	c0.567-0.532,13.894-13.154,13.894-24.39C34.188,7.512,27.823,1.148,20,1.148z M20,3.728c6.4,0,11.607,5.207,11.607,11.607
	c0,9.118-9.775,19.108-11.607,20.899C18.169,34.443,8.393,24.453,8.393,15.335C8.393,8.935,13.6,3.728,20,3.728z"/>
<path d="M20,22.644c4.03,0,7.309-3.278,7.309-7.309c0-4.03-3.278-7.309-7.309-7.309s-7.309,3.279-7.309,7.309
	C12.691,19.365,15.97,22.644,20,22.644z M20,10.606c2.607,0,4.729,2.121,4.729,4.729c0,2.608-2.121,4.729-4.729,4.729
	s-4.729-2.122-4.729-4.729C15.271,12.728,17.393,10.606,20,10.606z"/>
</svg>
