<?xml version="1.0" encoding="utf-8"?>
<!-- Generator: Adobe Illustrator 15.1.0, SVG Export Plug-In . SVG Version: 6.00 Build 0)  -->
<!DOCTYPE svg PUBLIC "-//W3C//DTD SVG 1.0//EN" "http://www.w3.org/TR/2001/REC-SVG-20010904/DTD/svg10.dtd">
<svg version="1.0" id="Layer_1" xmlns="http://www.w3.org/2000/svg" xmlns:xlink="http://www.w3.org/1999/xlink" x="0px" y="0px"
	 width="40px" height="40px" viewBox="0 0 40 40" enable-background="new 0 0 40 40" xml:space="preserve">
<path fill="#1D1D1B" d="M18.65,0.527H5.626c-0.745,0-1.35,0.604-1.35,1.352c0,0.745,0.604,1.35,1.35,1.35h11.674v5.793H9.874
	c-0.745,0-1.35,0.604-1.35,1.352c0,0.745,0.604,1.35,1.35,1.35h7.427v6.645H9.874c-0.745,0-1.35,0.604-1.35,1.351
	c0,0.745,0.604,1.351,1.35,1.351h7.427v6.644H9.874c-0.745,0-1.35,0.604-1.35,1.351s0.604,1.35,1.35,1.35h7.427v6.359H5.626
	c-0.745,0-1.35,0.604-1.35,1.351s0.604,1.351,1.35,1.351H18.65c0.744,0,1.35-0.604,1.35-1.351V1.879
	C20,1.133,19.396,0.527,18.65,0.527z"/>
<path d="M27.489,14.417c0.32,0,0.628,0.052,0.923,0.157s0.552,0.26,0.772,0.465c0.22,0.205,0.395,0.45,0.524,0.735
	s0.195,0.607,0.195,0.967c0,0.36-0.065,0.683-0.195,0.968c-0.13,0.285-0.305,0.53-0.524,0.735c-0.221,0.205-0.478,0.36-0.772,0.465
	s-0.603,0.158-0.923,0.158s-0.628-0.053-0.922-0.158c-0.296-0.105-0.553-0.26-0.773-0.465c-0.22-0.205-0.395-0.45-0.524-0.735
	c-0.13-0.285-0.195-0.607-0.195-0.968c0-0.36,0.065-0.682,0.195-0.967s0.305-0.53,0.524-0.735c0.221-0.205,0.478-0.36,0.773-0.465
	C26.861,14.469,27.169,14.417,27.489,14.417z M27.489,17.597c0.21,0,0.4-0.077,0.57-0.232c0.17-0.155,0.255-0.362,0.255-0.623
	c0-0.26-0.085-0.467-0.255-0.623c-0.17-0.155-0.36-0.232-0.57-0.232s-0.4,0.078-0.57,0.232c-0.17,0.155-0.255,0.363-0.255,0.623
	c0,0.26,0.085,0.468,0.255,0.623C27.089,17.52,27.279,17.597,27.489,17.597z"/>
<path d="M31.045,26.132V15.737h6.96v1.965h-4.62v2.175h4.11v1.965h-4.11v4.29H31.045z"/>
</svg>
