<?xml version="1.0" encoding="utf-8"?>
<!-- Generator: Adobe Illustrator 15.1.0, SVG Export Plug-In . SVG Version: 6.00 Build 0)  -->
<!DOCTYPE svg PUBLIC "-//W3C//DTD SVG 1.0//EN" "http://www.w3.org/TR/2001/REC-SVG-20010904/DTD/svg10.dtd">
<svg version="1.0" id="Layer_1" xmlns="http://www.w3.org/2000/svg" xmlns:xlink="http://www.w3.org/1999/xlink" x="0px" y="0px"
	 width="40px" height="40px" viewBox="0 0 40 40" enable-background="new 0 0 40 40" xml:space="preserve">
<path d="M6.931,24.616c-0.683,0-1.238,0.557-1.238,1.24c0,0.33,0.128,0.642,0.374,0.889l13.06,12.393
	C19.36,39.372,19.671,39.5,20,39.5c0.333,0,0.645-0.129,0.865-0.353l13.08-12.414c0.232-0.234,0.361-0.545,0.361-0.877
	c0-0.684-0.553-1.24-1.236-1.24c-0.33,0-0.643,0.13-0.865,0.354L20,36.552L7.808,24.981C7.574,24.746,7.263,24.616,6.931,24.616z"/>
<path d="M19.136,0.853L6.056,13.267c-0.234,0.234-0.363,0.545-0.363,0.877c0,0.684,0.556,1.239,1.238,1.239
	c0.33,0,0.641-0.129,0.864-0.352L20,3.448l12.195,11.573c0.234,0.233,0.547,0.362,0.875,0.362c0.684,0,1.236-0.556,1.236-1.239
	c0-0.333-0.129-0.646-0.373-0.888L20.875,0.864C20.642,0.629,20.332,0.5,20,0.5C19.671,0.5,19.36,0.628,19.136,0.853z"/>
</svg>
