<?xml version="1.0" encoding="UTF-8" standalone="no"?>
<!-- Generator: Adobe Illustrator 15.1.0, SVG Export Plug-In . SVG Version: 6.00 Build 0)  -->

<svg
   xmlns:dc="http://purl.org/dc/elements/1.1/"
   xmlns:cc="http://creativecommons.org/ns#"
   xmlns:rdf="http://www.w3.org/1999/02/22-rdf-syntax-ns#"
   xmlns:svg="http://www.w3.org/2000/svg"
   xmlns="http://www.w3.org/2000/svg"
   xmlns:sodipodi="http://sodipodi.sourceforge.net/DTD/sodipodi-0.dtd"
   xmlns:inkscape="http://www.inkscape.org/namespaces/inkscape"
   version="1.0"
   id="Layer_1"
   x="0px"
   y="0px"
   width="40px"
   height="40px"
   viewBox="0 0 40 40"
   enable-background="new 0 0 40 40"
   xml:space="preserve"
   inkscape:version="0.91 r13725"
   sodipodi:docname="captured.svg"><metadata
     id="metadata17"><rdf:RDF><cc:Work
         rdf:about=""><dc:format>image/svg+xml</dc:format><dc:type
           rdf:resource="http://purl.org/dc/dcmitype/StillImage" /><dc:title></dc:title></cc:Work></rdf:RDF></metadata><defs
     id="defs15" /><sodipodi:namedview
     pagecolor="#ffffff"
     bordercolor="#666666"
     borderopacity="1"
     objecttolerance="10"
     gridtolerance="10"
     guidetolerance="10"
     inkscape:pageopacity="0"
     inkscape:pageshadow="2"
     inkscape:window-width="1920"
     inkscape:window-height="1027"
     id="namedview13"
     showgrid="false"
     inkscape:zoom="8"
     inkscape:cx="-5.1866767"
     inkscape:cy="39.933791"
     inkscape:window-x="0"
     inkscape:window-y="0"
     inkscape:window-maximized="1"
     inkscape:current-layer="Layer_1" /><path
     inkscape:connector-curvature="0"
     id="path7"
     d="m 36.334,7.296 -3.63,0 c -2.723,0 -2.723,-3.629 -6.353,-3.629 l -6.351,0 -6.352,0 c -3.63,0 -3.63,3.629 -6.352,3.629 l -3.63,0 c -2.005,0 -3.63,1.626 -3.63,3.63 l 0,21.778 c 0,2.004 1.625,3.629 3.63,3.629 l 32.667,0 c 2.004,0 3.629,-1.625 3.629,-3.629 l 0,-21.778 c 10e-4,-2.004 -1.624,-3.63 -3.628,-3.63 z m 1.814,18.148 -7.893,0 c -0.225,0.635 -0.503,1.241 -0.835,1.814 l 8.728,0 0,5.445 c 0,1.001 -0.813,1.814 -1.814,1.814 l -32.667,0 c -1.002,0 -1.815,-0.813 -1.815,-1.814 l 0,-5.445 8.729,0 C 10.248,26.685 9.97,26.078 9.745,25.444 l -7.893,0 0,-14.518 c 0,-1.001 0.813,-1.814 1.815,-1.814 l 3.63,0 c 3.629,0 3.629,-3.63 6.352,-3.63 l 6.351,0 6.352,0 c 2.723,0 2.723,3.63 6.353,3.63 l 3.63,0 c 1.001,0 1.814,0.813 1.814,1.814 l 0,14.518 z"
     style="fill:#63616c;fill-opacity:1;stroke:#63616c;stroke-opacity:1;stroke-width:0.7;stroke-miterlimit:4;stroke-dasharray:none"
     inkscape:export-xdpi="254.72122"
     inkscape:export-ydpi="254.72122" /><path
     inkscape:connector-curvature="0"
     id="path11"
     d="m 20,12.74 c -5.012,0 -9.074,4.063 -9.074,9.074 0,5.013 4.063,9.074 9.074,9.074 5.011,0 9.074,-4.062 9.074,-9.074 0,-5.01 -4.062,-9.074 -9.074,-9.074 z m 0,16.334 c -4.009,0 -7.259,-3.25 -7.259,-7.26 0,-4.009 3.25,-7.259 7.259,-7.259 4.009,0 7.26,3.25 7.26,7.259 0,4.01 -3.251,7.26 -7.26,7.26 z"
     style="fill:#63616c;fill-opacity:1;stroke:#63616c;stroke-opacity:1;stroke-width:0.7;stroke-miterlimit:4;stroke-dasharray:none"
     inkscape:export-xdpi="254.72122"
     inkscape:export-ydpi="254.72122" /></svg>