<?xml version="1.0" encoding="UTF-8" standalone="no"?>
<svg
   xmlns:dc="http://purl.org/dc/elements/1.1/"
   xmlns:cc="http://creativecommons.org/ns#"
   xmlns:rdf="http://www.w3.org/1999/02/22-rdf-syntax-ns#"
   xmlns:svg="http://www.w3.org/2000/svg"
   xmlns="http://www.w3.org/2000/svg"
   xmlns:sodipodi="http://sodipodi.sourceforge.net/DTD/sodipodi-0.dtd"
   xmlns:inkscape="http://www.inkscape.org/namespaces/inkscape"
   version="1.0"
   width="329.37305pt"
   height="372.5437pt"
   viewBox="0 0 329.37305 372.5437"
   preserveAspectRatio="xMidYMid meet"
   id="svg2"
   inkscape:version="0.91 r13725"
   sodipodi:docname="memory.svg">
  <defs
     id="defs12" />
  <sodipodi:namedview
     pagecolor="#ffffff"
     bordercolor="#666666"
     borderopacity="1"
     objecttolerance="10"
     gridtolerance="10"
     guidetolerance="10"
     inkscape:pageopacity="0"
     inkscape:pageshadow="2"
     inkscape:window-width="1920"
     inkscape:window-height="1027"
     id="namedview10"
     showgrid="false"
     fit-margin-top="0"
     fit-margin-left="0"
     fit-margin-right="0"
     fit-margin-bottom="0"
     inkscape:zoom="1.475"
     inkscape:cx="-55.522643"
     inkscape:cy="560.02015"
     inkscape:window-x="0"
     inkscape:window-y="0"
     inkscape:window-maximized="1"
     inkscape:current-layer="svg2" />
  <metadata
     id="metadata4">
Created by potrace 1.13, written by Peter Selinger 2001-2015
<rdf:RDF>
  <cc:Work
     rdf:about="">
    <dc:format>image/svg+xml</dc:format>
    <dc:type
       rdf:resource="http://purl.org/dc/dcmitype/StillImage" />
    <dc:title></dc:title>
  </cc:Work>
</rdf:RDF>
</metadata>
  <g
     transform="matrix(0.1,0,0,-0.1,-91.139175,442.33607)"
     id="g6"
     style="fill:#000000;stroke:none">
    <path
       d="m 2400,4419 c -638,-27 -1199,-246 -1399,-545 -92,-138 -85,-34 -89,-1269 -2,-731 1,-1113 8,-1160 21,-138 106,-264 255,-377 101,-77 298,-179 441,-227 504,-170 1164,-190 1708,-52 380,97 664,260 796,457 92,138 85,37 85,1314 0,1277 7,1176 -85,1314 -165,246 -573,439 -1090,516 -74,11 -196,23 -270,26 -74,2 -151,6 -170,7 -19,1 -105,0 -190,-4 z M 1222,3153 c 246,-167 610,-281 1042,-324 177,-17 593,-6 766,20 355,56 660,162 868,304 45,32 85,57 88,57 3,0 4,-84 2,-187 -3,-180 -4,-190 -30,-246 -74,-159 -303,-294 -644,-382 -391,-101 -920,-116 -1338,-39 -418,77 -728,238 -814,421 -26,55 -27,66 -30,246 -2,103 -1,187 2,187 3,0 43,-25 88,-57 z m -2,-728 c 251,-171 605,-283 1025,-325 61,-6 202,-11 315,-11 220,0 356,10 542,42 313,52 598,157 796,292 45,32 85,57 88,57 3,0 4,-78 2,-172 -4,-200 -14,-232 -95,-319 -286,-306 -1117,-457 -1853,-338 -377,61 -668,182 -813,338 -81,87 -91,119 -95,319 -2,94 -1,172 2,172 3,0 42,-25 86,-55 z m -5,-693 c 193,-142 563,-267 940,-318 183,-25 627,-25 810,0 377,51 747,176 940,318 33,24 66,48 73,52 11,7 13,-23 10,-165 -3,-165 -4,-177 -30,-232 -74,-158 -304,-295 -644,-382 -265,-68 -600,-99 -919,-84 -614,28 -1117,219 -1233,466 -25,55 -27,68 -30,232 -3,144 -2,172 9,165 8,-4 41,-28 74,-52 z"
       id="path8"
       inkscape:connector-curvature="0" />
  </g>
</svg>
