<?xml version="1.0" encoding="utf-8"?>
<!-- Generator: Adobe Illustrator 15.1.0, SVG Export Plug-In . SVG Version: 6.00 Build 0)  -->
<!DOCTYPE svg PUBLIC "-//W3C//DTD SVG 1.0//EN" "http://www.w3.org/TR/2001/REC-SVG-20010904/DTD/svg10.dtd">
<svg version="1.0" id="Layer_1" xmlns="http://www.w3.org/2000/svg" xmlns:xlink="http://www.w3.org/1999/xlink" x="0px" y="0px"
	 width="40px" height="40px" viewBox="0 0 40 40" enable-background="new 0 0 40 40" xml:space="preserve">
<path d="M29.713,18.543H10.287c-0.804,0-1.457,0.654-1.457,1.457c0,0.805,0.653,1.458,1.457,1.458h19.426
	c0.804,0,1.457-0.653,1.457-1.458C31.17,19.197,30.517,18.543,29.713,18.543z"/>
<path d="M20,0C8.972,0,0,8.972,0,20c0,11.027,8.972,20,20,20c11.027,0,20-8.973,20-20C40,8.972,31.027,0,20,0z M20,37.086
	c-9.422,0-17.086-7.664-17.086-17.086c0-9.421,7.664-17.086,17.086-17.086S37.086,10.579,37.086,20
	C37.086,29.422,29.422,37.086,20,37.086z"/>
</svg>
