<?xml version="1.0" encoding="utf-8"?>
<!-- Generator: Adobe Illustrator 15.1.0, SVG Export Plug-In . SVG Version: 6.00 Build 0)  -->
<!DOCTYPE svg PUBLIC "-//W3C//DTD SVG 1.0//EN" "http://www.w3.org/TR/2001/REC-SVG-20010904/DTD/svg10.dtd">
<svg version="1.0" id="Layer_1" xmlns="http://www.w3.org/2000/svg" xmlns:xlink="http://www.w3.org/1999/xlink" x="0px" y="0px"
	 width="40px" height="40px" viewBox="0 0 40 40" enable-background="new 0 0 40 40" xml:space="preserve">
<path d="M37.104,17.435H22.566V2.898c0-1.416-1.15-2.567-2.566-2.567c-1.415,0-2.565,1.151-2.565,2.567v14.537H2.896
	c-1.415,0-2.565,1.151-2.565,2.565c0,1.418,1.15,2.568,2.565,2.568h14.538v14.535c0,1.414,1.15,2.566,2.565,2.566
	c1.416,0,2.566-1.152,2.566-2.566V22.568h14.537c1.416,0,2.565-1.15,2.565-2.568C39.669,18.586,38.52,17.435,37.104,17.435z"/>
</svg>
