<?xml version="1.0" encoding="utf-8"?>
<!-- Generator: Adobe Illustrator 15.1.0, SVG Export Plug-In . SVG Version: 6.00 Build 0)  -->
<!DOCTYPE svg PUBLIC "-//W3C//DTD SVG 1.0//EN" "http://www.w3.org/TR/2001/REC-SVG-20010904/DTD/svg10.dtd">
<svg version="1.0" id="Layer_1" xmlns="http://www.w3.org/2000/svg" xmlns:xlink="http://www.w3.org/1999/xlink" x="0px" y="0px"
	 width="40px" height="40px" viewBox="0 0 40 40" enable-background="new 0 0 40 40" xml:space="preserve">
<path d="M20,10.667c-5.146,0-9.333,4.187-9.333,9.333s4.187,9.334,9.333,9.334s9.334-4.188,9.334-9.334S25.146,10.667,20,10.667z
	 M20,26.666c-3.676,0-6.667-2.99-6.667-6.666c0-3.676,2.99-6.667,6.667-6.667c3.676,0,6.666,2.99,6.666,6.667
	C26.666,23.676,23.676,26.666,20,26.666z"/>
<path d="M38.359,15.659l-1.631-0.409c-0.368-1.295-0.887-2.543-1.543-3.715l0.881-1.47c0.643-1.244,0.311-1.971-0.08-2.362
	l-3.688-3.687c-0.564-0.565-1.519-0.583-2.387-0.067l-1.457,0.874c-1.172-0.654-2.414-1.169-3.701-1.535l-0.419-1.673
	C23.91,0.28,23.16,0,22.607,0h-5.215c-0.813,0-1.477,0.628-1.735,1.641l-0.412,1.646c-1.287,0.366-2.53,0.881-3.702,1.535
	l-1.458-0.875C9.223,3.433,8.264,3.45,7.701,4.015L4.014,7.702C3.623,8.093,3.292,8.82,3.947,10.089l0.868,1.445
	c-0.659,1.177-1.178,2.424-1.544,3.715l-1.632,0.409C0.628,15.916,0,16.58,0,17.393v5.214c0,0.555,0.28,1.303,1.64,1.734
	l1.631,0.408c0.366,1.291,0.884,2.539,1.544,3.716l-0.869,1.448c-0.531,0.896-0.505,1.811,0.068,2.385l3.688,3.688
	c0.545,0.546,1.351,0.604,2.387,0.066l1.457-0.873c1.174,0.654,2.417,1.17,3.701,1.533l0.412,1.648
	C15.916,39.373,16.58,40,17.393,40h5.215c0.553,0,1.303-0.279,1.735-1.641l0.411-1.646c1.284-0.363,2.527-0.879,3.701-1.533
	l1.482,0.889c0.988,0.507,1.806,0.469,2.361-0.082l3.688-3.688c0.572-0.574,0.599-1.488,0.066-2.387l-0.867-1.446
	c0.656-1.173,1.175-2.42,1.543-3.716l1.658-0.415C39.721,23.91,40,23.162,40,22.607v-5.214C40,16.58,39.371,15.916,38.359,15.659z
	 M34.223,23.807c-0.332,1.24-0.828,2.435-1.475,3.549c-0.406,0.699-0.4,1.565,0.017,2.26l0.8,1.334l-2.615,2.616l-1.346-0.806
	c-0.682-0.408-1.563-0.416-2.254-0.02c-1.115,0.645-2.305,1.139-3.538,1.468c-0.78,0.208-1.388,0.824-1.583,1.607l-0.379,1.519
	H18.15l-0.38-1.52c-0.196-0.783-0.803-1.398-1.582-1.605c-1.234-0.331-2.426-0.824-3.541-1.469c-0.686-0.396-1.573-0.389-2.253,0.02
	L9.056,33.57l-2.621-2.621l0.8-1.334c0.417-0.693,0.423-1.559,0.017-2.26c-0.648-1.117-1.145-2.311-1.476-3.549
	c-0.208-0.779-0.824-1.385-1.606-1.58l-1.503-0.375V18.15l1.503-0.375c0.783-0.197,1.398-0.803,1.606-1.582
	c0.331-1.237,0.828-2.431,1.476-3.549c0.406-0.7,0.399-1.565-0.017-2.258l-0.8-1.335l2.616-2.615l1.344,0.807
	c0.68,0.407,1.565,0.415,2.254,0.018c1.114-0.644,2.305-1.137,3.54-1.467c0.779-0.209,1.385-0.825,1.582-1.607l0.38-1.519h3.699
	l0.379,1.519c0.195,0.782,0.802,1.398,1.583,1.607c1.231,0.329,2.422,0.822,3.539,1.467c0.687,0.396,1.569,0.389,2.255-0.019
	l1.342-0.806l2.617,2.616l-0.8,1.333c-0.417,0.695-0.423,1.561-0.017,2.26c0.646,1.115,1.143,2.309,1.475,3.549
	c0.209,0.779,0.824,1.386,1.607,1.582l1.504,0.375v3.7l-1.504,0.376C35.048,22.422,34.432,23.027,34.223,23.807z"/>
</svg>
