<?xml version="1.0" encoding="UTF-8" standalone="no"?>
<svg
   xmlns:dc="http://purl.org/dc/elements/1.1/"
   xmlns:cc="http://creativecommons.org/ns#"
   xmlns:rdf="http://www.w3.org/1999/02/22-rdf-syntax-ns#"
   xmlns:svg="http://www.w3.org/2000/svg"
   xmlns="http://www.w3.org/2000/svg"
   xmlns:sodipodi="http://sodipodi.sourceforge.net/DTD/sodipodi-0.dtd"
   xmlns:inkscape="http://www.inkscape.org/namespaces/inkscape"
   version="1.0"
   width="486.00949pt"
   height="433.95206pt"
   viewBox="0 0 486.00949 433.95206"
   preserveAspectRatio="xMidYMid meet"
   id="svg2"
   inkscape:version="0.91 r13725"
   sodipodi:docname="video.svg">
  <defs
     id="defs14" />
  <sodipodi:namedview
     pagecolor="#ffffff"
     bordercolor="#666666"
     borderopacity="1"
     objecttolerance="10"
     gridtolerance="10"
     guidetolerance="10"
     inkscape:pageopacity="0"
     inkscape:pageshadow="2"
     inkscape:window-width="1920"
     inkscape:window-height="1054"
     id="namedview12"
     showgrid="false"
     inkscape:zoom="0.36875"
     inkscape:cx="309.1799"
     inkscape:cy="271.25363"
     inkscape:window-x="1920"
     inkscape:window-y="13"
     inkscape:window-maximized="1"
     inkscape:current-layer="svg2"
     fit-margin-top="0"
     fit-margin-left="0"
     fit-margin-right="0"
     fit-margin-bottom="0" />
  <metadata
     id="metadata4">
Created by potrace 1.13, written by Peter Selinger 2001-2015
<rdf:RDF>
  <cc:Work
     rdf:about="">
    <dc:format>image/svg+xml</dc:format>
    <dc:type
       rdf:resource="http://purl.org/dc/dcmitype/StillImage" />
    <dc:title></dc:title>
  </cc:Work>
</rdf:RDF>
</metadata>
  <g
     transform="matrix(0.1,0,0,-0.1,-12.995062,472.94914)"
     id="g6"
     style="fill:#000000;stroke:none">
    <path
       d="m 460,4711 c -30,-10 -71,-26 -90,-36 -52,-27 -147,-122 -180,-180 -64,-111 -60,5 -60,-1935 0,-1940 -4,-1824 60,-1935 35,-61 130,-154 185,-183 110,-55 -28,-52 2180,-52 2223,0 2091,-3 2195,57 64,38 140,112 177,175 67,111 63,-11 63,1938 0,1932 3,1827 -57,1930 -38,65 -118,146 -177,179 -115,66 48,61 -2200,60 -1927,0 -2044,-1 -2096,-18 z m 528,-273 c 9,-9 12,-72 12,-224 0,-185 -2,-213 -17,-225 -12,-11 -62,-14 -223,-14 -161,0 -211,3 -223,14 -15,12 -17,40 -17,222 0,175 2,210 16,223 13,14 48,16 228,16 151,0 215,-3 224,-12 z m 926,-10 c 22,-31 24,-404 2,-434 -13,-18 -28,-19 -231,-19 -203,0 -218,1 -231,19 -22,30 -20,403 2,434 15,22 19,22 229,22 210,0 214,0 229,-22 z m 920,6 c 14,-13 16,-48 16,-223 0,-182 -2,-210 -17,-222 -12,-11 -62,-14 -223,-14 -161,0 -211,3 -223,14 -15,12 -17,40 -17,225 0,152 3,215 12,224 9,9 73,12 224,12 180,0 215,-2 228,-16 z m 924,4 c 9,-9 12,-72 12,-224 0,-185 -2,-213 -17,-225 -12,-11 -62,-14 -223,-14 -161,0 -211,3 -223,14 -15,12 -17,41 -17,227 0,192 2,214 18,223 26,15 435,14 450,-1 z m 874,-5 c 16,-15 18,-35 18,-218 0,-158 -3,-205 -14,-221 -13,-18 -28,-19 -223,-19 -114,0 -216,3 -225,7 -16,7 -18,27 -18,226 0,156 3,221 12,230 9,9 72,12 222,12 181,0 212,-2 228,-17 z m 38,-1833 0,-1160 -2095,0 -2095,0 0,1160 0,1160 2095,0 2095,0 0,-1160 z M 988,1188 c 17,-17 17,-429 0,-446 -17,-17 -439,-17 -456,0 -9,9 -12,71 -12,219 0,175 2,210 16,223 13,14 48,16 228,16 151,0 215,-3 224,-12 z m 926,-4 c 24,-23 24,-415 0,-438 -13,-14 -48,-16 -227,-16 -117,0 -219,5 -227,10 -13,8 -15,44 -15,225 0,181 2,217 15,225 8,5 110,10 227,10 179,0 214,-2 227,-16 z m 917,6 c 18,-10 19,-23 19,-223 0,-152 -3,-216 -12,-225 -17,-17 -439,-17 -456,0 -17,17 -17,429 0,446 15,15 420,17 449,2 z m 927,-2 c 17,-17 17,-429 0,-446 -17,-17 -439,-17 -456,0 -17,17 -17,429 0,446 17,17 439,17 456,0 z m 876,-4 c 24,-23 24,-415 0,-438 -13,-14 -48,-16 -224,-16 -115,0 -215,3 -224,6 -14,5 -16,34 -16,223 0,155 3,220 12,229 9,9 73,12 224,12 180,0 215,-2 228,-16 z"
       id="path8"
       inkscape:connector-curvature="0" />
    <path
       d="m 2123,3288 c -53,-26 -53,-27 -53,-686 l 0,-609 23,-34 c 19,-29 29,-34 67,-37 43,-3 65,9 505,276 253,153 479,291 502,305 78,49 93,126 35,179 -29,28 -956,592 -998,608 -31,12 -53,12 -81,-2 z"
       id="path10"
       inkscape:connector-curvature="0" />
  </g>
</svg>
