<?xml version="1.0" encoding="utf-8"?>
<!-- Generator: Adobe Illustrator 15.1.0, SVG Export Plug-In . SVG Version: 6.00 Build 0)  -->
<!DOCTYPE svg PUBLIC "-//W3C//DTD SVG 1.0//EN" "http://www.w3.org/TR/2001/REC-SVG-20010904/DTD/svg10.dtd">
<svg version="1.0" id="Layer_1" xmlns="http://www.w3.org/2000/svg" xmlns:xlink="http://www.w3.org/1999/xlink" x="0px" y="0px"
	 width="40px" height="40px" viewBox="0 0 40 40" enable-background="new 0 0 40 40" xml:space="preserve">
<path d="M9.334,18.667H16v6.667c0,0.734,0.599,1.332,1.334,1.332c0.734,0,1.333-0.598,1.333-1.332v-6.667h6.667
	c0.734,0,1.333-0.598,1.333-1.333c0-0.735-0.599-1.333-1.333-1.333h-6.667V9.333C18.667,8.598,18.068,8,17.334,8
	C16.599,8,16,8.598,16,9.333V16H9.334C8.599,16,8,16.598,8,17.333C8,18.069,8.599,18.667,9.334,18.667z"/>
<path d="M39.61,37.724l-9.127-9.126c2.701-3.147,4.184-7.132,4.184-11.265C34.667,7.775,26.891,0,17.334,0C7.776,0,0,7.775,0,17.333
	s7.776,17.333,17.334,17.333c4.133,0,8.116-1.482,11.264-4.184l9.125,9.125C37.974,39.86,38.31,40,38.667,40
	C39.402,40,40,39.401,40,38.667C40,38.31,39.861,37.976,39.61,37.724z M17.334,32.001c-8.087,0-14.667-6.581-14.667-14.668
	S9.247,2.667,17.334,2.667s14.667,6.579,14.667,14.666S25.421,32.001,17.334,32.001z"/>
</svg>
